<svg width="141" height="141" viewBox="0 0 141 141" fill="none" xmlns="http://www.w3.org/2000/svg">
<path d="M43.7587 0H38.8966V4.86207H43.7587V0Z" fill="black"/>
<path d="M48.6206 0H43.7585V4.86207H48.6206V0Z" fill="black"/>
<path d="M53.4827 0H48.6206V4.86207H53.4827V0Z" fill="black"/>
<path d="M68.0689 0H63.2068V4.86207H68.0689V0Z" fill="black"/>
<path d="M72.9312 0H68.0691V4.86207H72.9312V0Z" fill="black"/>
<path d="M77.793 0H72.9309V4.86207H77.793V0Z" fill="black"/>
<path d="M92.3792 0H87.5171V4.86207H92.3792V0Z" fill="black"/>
<path d="M43.7587 4.86208H38.8966V9.72414H43.7587V4.86208Z" fill="black"/>
<path d="M48.6206 4.86208H43.7585V9.72414H48.6206V4.86208Z" fill="black"/>
<path d="M53.4827 4.86208H48.6206V9.72414H53.4827V4.86208Z" fill="black"/>
<path d="M58.3449 4.86208H53.4828V9.72414H58.3449V4.86208Z" fill="black"/>
<path d="M63.2068 4.86208H58.3447V9.72414H63.2068V4.86208Z" fill="black"/>
<path d="M68.0689 4.86208H63.2068V9.72414H68.0689V4.86208Z" fill="black"/>
<path d="M72.9312 4.86208H68.0691V9.72414H72.9312V4.86208Z" fill="black"/>
<path d="M77.793 4.86208H72.9309V9.72414H77.793V4.86208Z" fill="black"/>
<path d="M87.5173 4.86208H82.6553V9.72414H87.5173V4.86208Z" fill="black"/>
<path d="M92.3792 4.86208H87.5171V9.72414H92.3792V4.86208Z" fill="black"/>
<path d="M97.2415 4.86208H92.3794V9.72414H97.2415V4.86208Z" fill="black"/>
<path d="M102.104 4.86208H97.2415V9.72414H102.104V4.86208Z" fill="black"/>
<path d="M43.7587 9.72414H38.8966V14.5862H43.7587V9.72414Z" fill="black"/>
<path d="M48.6206 9.72414H43.7585V14.5862H48.6206V9.72414Z" fill="black"/>
<path d="M53.4827 9.72414H48.6206V14.5862H53.4827V9.72414Z" fill="black"/>
<path d="M58.3449 9.72414H53.4828V14.5862H58.3449V9.72414Z" fill="black"/>
<path d="M68.0689 9.72414H63.2068V14.5862H68.0689V9.72414Z" fill="black"/>
<path d="M72.9312 9.72414H68.0691V14.5862H72.9312V9.72414Z" fill="black"/>
<path d="M102.104 9.72414H97.2415V14.5862H102.104V9.72414Z" fill="black"/>
<path d="M48.6206 14.5862H43.7585V19.4483H48.6206V14.5862Z" fill="black"/>
<path d="M53.4827 14.5862H48.6206V19.4483H53.4827V14.5862Z" fill="black"/>
<path d="M58.3449 14.5862H53.4828V19.4483H58.3449V14.5862Z" fill="black"/>
<path d="M63.2068 14.5862H58.3447V19.4483H63.2068V14.5862Z" fill="black"/>
<path d="M72.9312 14.5862H68.0691V19.4483H72.9312V14.5862Z" fill="black"/>
<path d="M77.793 14.5862H72.9309V19.4483H77.793V14.5862Z" fill="black"/>
<path d="M87.5173 14.5862H82.6553V19.4483H87.5173V14.5862Z" fill="black"/>
<path d="M97.2415 14.5862H92.3794V19.4483H97.2415V14.5862Z" fill="black"/>
<path d="M102.104 14.5862H97.2415V19.4483H102.104V14.5862Z" fill="black"/>
<path d="M43.7587 19.4483H38.8966V24.3104H43.7587V19.4483Z" fill="black"/>
<path d="M48.6206 19.4483H43.7585V24.3104H48.6206V19.4483Z" fill="black"/>
<path d="M53.4827 19.4483H48.6206V24.3104H53.4827V19.4483Z" fill="black"/>
<path d="M63.2068 19.4483H58.3447V24.3104H63.2068V19.4483Z" fill="black"/>
<path d="M68.0689 19.4483H63.2068V24.3104H68.0689V19.4483Z" fill="black"/>
<path d="M77.793 19.4483H72.9309V24.3104H77.793V19.4483Z" fill="black"/>
<path d="M87.5173 19.4483H82.6553V24.3104H87.5173V19.4483Z" fill="black"/>
<path d="M92.3792 19.4483H87.5171V24.3104H92.3792V19.4483Z" fill="black"/>
<path d="M97.2415 19.4483H92.3794V24.3104H97.2415V19.4483Z" fill="black"/>
<path d="M48.6206 24.3103H43.7585V29.1724H48.6206V24.3103Z" fill="black"/>
<path d="M68.0689 24.3103H63.2068V29.1724H68.0689V24.3103Z" fill="black"/>
<path d="M72.9312 24.3103H68.0691V29.1724H72.9312V24.3103Z" fill="black"/>
<path d="M87.5173 24.3103H82.6553V29.1724H87.5173V24.3103Z" fill="black"/>
<path d="M102.104 24.3103H97.2415V29.1724H102.104V24.3103Z" fill="black"/>
<path d="M43.7587 29.1724H38.8966V34.0345H43.7587V29.1724Z" fill="black"/>
<path d="M53.4827 29.1724H48.6206V34.0345H53.4827V29.1724Z" fill="black"/>
<path d="M63.2068 29.1724H58.3447V34.0345H63.2068V29.1724Z" fill="black"/>
<path d="M72.9312 29.1724H68.0691V34.0345H72.9312V29.1724Z" fill="black"/>
<path d="M82.6553 29.1724H77.7932V34.0345H82.6553V29.1724Z" fill="black"/>
<path d="M92.3792 29.1724H87.5171V34.0345H92.3792V29.1724Z" fill="black"/>
<path d="M102.104 29.1724H97.2415V34.0345H102.104V29.1724Z" fill="black"/>
<path d="M48.6206 34.0345H43.7585V38.8966H48.6206V34.0345Z" fill="black"/>
<path d="M63.2068 34.0345H58.3447V38.8966H63.2068V34.0345Z" fill="black"/>
<path d="M72.9312 34.0345H68.0691V38.8966H72.9312V34.0345Z" fill="black"/>
<path d="M4.86207 38.8965H0V43.7586H4.86207V38.8965Z" fill="black"/>
<path d="M19.4484 38.8965H14.5863V43.7586H19.4484V38.8965Z" fill="black"/>
<path d="M24.3103 38.8965H19.4482V43.7586H24.3103V38.8965Z" fill="black"/>
<path d="M29.1724 38.8965H24.3103V43.7586H29.1724V38.8965Z" fill="black"/>
<path d="M34.0344 38.8965H29.1724V43.7586H34.0344V38.8965Z" fill="black"/>
<path d="M38.8966 38.8965H34.0345V43.7586H38.8966V38.8965Z" fill="black"/>
<path d="M43.7587 38.8965H38.8966V43.7586H43.7587V38.8965Z" fill="black"/>
<path d="M48.6206 38.8965H43.7585V43.7586H48.6206V38.8965Z" fill="black"/>
<path d="M63.2068 38.8965H58.3447V43.7586H63.2068V38.8965Z" fill="black"/>
<path d="M68.0689 38.8965H63.2068V43.7586H68.0689V38.8965Z" fill="black"/>
<path d="M72.9312 38.8965H68.0691V43.7586H72.9312V38.8965Z" fill="black"/>
<path d="M77.793 38.8965H72.9309V43.7586H77.793V38.8965Z" fill="black"/>
<path d="M82.6553 38.8965H77.7932V43.7586H82.6553V38.8965Z" fill="black"/>
<path d="M87.5173 38.8965H82.6553V43.7586H87.5173V38.8965Z" fill="black"/>
<path d="M106.966 38.8965H102.104V43.7586H106.966V38.8965Z" fill="black"/>
<path d="M121.552 38.8965H116.69V43.7586H121.552V38.8965Z" fill="black"/>
<path d="M131.276 38.8965H126.414V43.7586H131.276V38.8965Z" fill="black"/>
<path d="M136.138 38.8965H131.276V43.7586H136.138V38.8965Z" fill="black"/>
<path d="M141 38.8965H136.138V43.7586H141V38.8965Z" fill="black"/>
<path d="M4.86207 43.7586H0V48.6207H4.86207V43.7586Z" fill="black"/>
<path d="M14.5862 43.7586H9.72412V48.6207H14.5862V43.7586Z" fill="black"/>
<path d="M43.7587 43.7586H38.8966V48.6207H43.7587V43.7586Z" fill="black"/>
<path d="M63.2068 43.7586H58.3447V48.6207H63.2068V43.7586Z" fill="black"/>
<path d="M72.9312 43.7586H68.0691V48.6207H72.9312V43.7586Z" fill="black"/>
<path d="M87.5173 43.7586H82.6553V48.6207H87.5173V43.7586Z" fill="black"/>
<path d="M97.2415 43.7586H92.3794V48.6207H97.2415V43.7586Z" fill="black"/>
<path d="M106.966 43.7586H102.104V48.6207H106.966V43.7586Z" fill="black"/>
<path d="M116.689 43.7586H111.827V48.6207H116.689V43.7586Z" fill="black"/>
<path d="M121.552 43.7586H116.69V48.6207H121.552V43.7586Z" fill="black"/>
<path d="M131.276 43.7586H126.414V48.6207H131.276V43.7586Z" fill="black"/>
<path d="M136.138 43.7586H131.276V48.6207H136.138V43.7586Z" fill="black"/>
<path d="M9.72413 48.6207H4.86206V53.4828H9.72413V48.6207Z" fill="black"/>
<path d="M14.5862 48.6207H9.72412V53.4828H14.5862V48.6207Z" fill="black"/>
<path d="M24.3103 48.6207H19.4482V53.4828H24.3103V48.6207Z" fill="black"/>
<path d="M29.1724 48.6207H24.3103V53.4828H29.1724V48.6207Z" fill="black"/>
<path d="M34.0344 48.6207H29.1724V53.4828H34.0344V48.6207Z" fill="black"/>
<path d="M48.6206 48.6207H43.7585V53.4828H48.6206V48.6207Z" fill="black"/>
<path d="M53.4827 48.6207H48.6206V53.4828H53.4827V48.6207Z" fill="black"/>
<path d="M72.9312 48.6207H68.0691V53.4828H72.9312V48.6207Z" fill="black"/>
<path d="M87.5173 48.6207H82.6553V53.4828H87.5173V48.6207Z" fill="black"/>
<path d="M92.3792 48.6207H87.5171V53.4828H92.3792V48.6207Z" fill="black"/>
<path d="M106.966 48.6207H102.104V53.4828H106.966V48.6207Z" fill="black"/>
<path d="M116.689 48.6207H111.827V53.4828H116.689V48.6207Z" fill="black"/>
<path d="M131.276 48.6207H126.414V53.4828H131.276V48.6207Z" fill="black"/>
<path d="M19.4484 53.4828H14.5863V58.3448H19.4484V53.4828Z" fill="black"/>
<path d="M24.3103 53.4828H19.4482V58.3448H24.3103V53.4828Z" fill="black"/>
<path d="M43.7587 53.4828H38.8966V58.3448H43.7587V53.4828Z" fill="black"/>
<path d="M48.6206 53.4828H43.7585V58.3448H48.6206V53.4828Z" fill="black"/>
<path d="M53.4827 53.4828H48.6206V58.3448H53.4827V53.4828Z" fill="black"/>
<path d="M72.9312 53.4828H68.0691V58.3448H72.9312V53.4828Z" fill="black"/>
<path d="M77.793 53.4828H72.9309V58.3448H77.793V53.4828Z" fill="black"/>
<path d="M87.5173 53.4828H82.6553V58.3448H87.5173V53.4828Z" fill="black"/>
<path d="M102.104 53.4828H97.2415V58.3448H102.104V53.4828Z" fill="black"/>
<path d="M106.966 53.4828H102.104V58.3448H106.966V53.4828Z" fill="black"/>
<path d="M111.828 53.4828H106.966V58.3448H111.828V53.4828Z" fill="black"/>
<path d="M126.414 53.4828H121.552V58.3448H126.414V53.4828Z" fill="black"/>
<path d="M141 53.4828H136.138V58.3448H141V53.4828Z" fill="black"/>
<path d="M4.86207 58.3448H0V63.2069H4.86207V58.3448Z" fill="black"/>
<path d="M9.72413 58.3448H4.86206V63.2069H9.72413V58.3448Z" fill="black"/>
<path d="M14.5862 58.3448H9.72412V63.2069H14.5862V58.3448Z" fill="black"/>
<path d="M19.4484 58.3448H14.5863V63.2069H19.4484V58.3448Z" fill="black"/>
<path d="M34.0344 58.3448H29.1724V63.2069H34.0344V58.3448Z" fill="black"/>
<path d="M53.4827 58.3448H48.6206V63.2069H53.4827V58.3448Z" fill="black"/>
<path d="M63.2068 58.3448H58.3447V63.2069H63.2068V58.3448Z" fill="black"/>
<path d="M68.0689 58.3448H63.2068V63.2069H68.0689V58.3448Z" fill="black"/>
<path d="M72.9312 58.3448H68.0691V63.2069H72.9312V58.3448Z" fill="black"/>
<path d="M92.3792 58.3448H87.5171V63.2069H92.3792V58.3448Z" fill="black"/>
<path d="M102.104 58.3448H97.2415V63.2069H102.104V58.3448Z" fill="black"/>
<path d="M111.828 58.3448H106.966V63.2069H111.828V58.3448Z" fill="black"/>
<path d="M116.689 58.3448H111.827V63.2069H116.689V58.3448Z" fill="black"/>
<path d="M141 58.3448H136.138V63.2069H141V58.3448Z" fill="black"/>
<path d="M14.5862 63.2069H9.72412V68.069H14.5862V63.2069Z" fill="black"/>
<path d="M58.3449 63.2069H53.4828V68.069H58.3449V63.2069Z" fill="black"/>
<path d="M63.2068 63.2069H58.3447V68.069H63.2068V63.2069Z" fill="black"/>
<path d="M87.5173 63.2069H82.6553V68.069H87.5173V63.2069Z" fill="black"/>
<path d="M92.3792 63.2069H87.5171V68.069H92.3792V63.2069Z" fill="black"/>
<path d="M106.966 63.2069H102.104V68.069H106.966V63.2069Z" fill="black"/>
<path d="M111.828 63.2069H106.966V68.069H111.828V63.2069Z" fill="black"/>
<path d="M121.552 63.2069H116.69V68.069H121.552V63.2069Z" fill="black"/>
<path d="M126.414 63.2069H121.552V68.069H126.414V63.2069Z" fill="black"/>
<path d="M131.276 63.2069H126.414V68.069H131.276V63.2069Z" fill="black"/>
<path d="M136.138 63.2069H131.276V68.069H136.138V63.2069Z" fill="black"/>
<path d="M141 63.2069H136.138V68.069H141V63.2069Z" fill="black"/>
<path d="M9.72413 68.069H4.86206V72.931H9.72413V68.069Z" fill="black"/>
<path d="M29.1724 68.069H24.3103V72.931H29.1724V68.069Z" fill="black"/>
<path d="M34.0344 68.069H29.1724V72.931H34.0344V68.069Z" fill="black"/>
<path d="M38.8966 68.069H34.0345V72.931H38.8966V68.069Z" fill="black"/>
<path d="M43.7587 68.069H38.8966V72.931H43.7587V68.069Z" fill="black"/>
<path d="M53.4827 68.069H48.6206V72.931H53.4827V68.069Z" fill="black"/>
<path d="M72.9312 68.069H68.0691V72.931H72.9312V68.069Z" fill="black"/>
<path d="M77.793 68.069H72.9309V72.931H77.793V68.069Z" fill="black"/>
<path d="M87.5173 68.069H82.6553V72.931H87.5173V68.069Z" fill="black"/>
<path d="M97.2415 68.069H92.3794V72.931H97.2415V68.069Z" fill="black"/>
<path d="M102.104 68.069H97.2415V72.931H102.104V68.069Z" fill="black"/>
<path d="M106.966 68.069H102.104V72.931H106.966V68.069Z" fill="black"/>
<path d="M111.828 68.069H106.966V72.931H111.828V68.069Z" fill="black"/>
<path d="M116.689 68.069H111.827V72.931H116.689V68.069Z" fill="black"/>
<path d="M131.276 68.069H126.414V72.931H131.276V68.069Z" fill="black"/>
<path d="M141 68.069H136.138V72.931H141V68.069Z" fill="black"/>
<path d="M4.86207 72.931H0V77.7931H4.86207V72.931Z" fill="black"/>
<path d="M9.72413 72.931H4.86206V77.7931H9.72413V72.931Z" fill="black"/>
<path d="M24.3103 72.931H19.4482V77.7931H24.3103V72.931Z" fill="black"/>
<path d="M38.8966 72.931H34.0345V77.7931H38.8966V72.931Z" fill="black"/>
<path d="M48.6206 72.931H43.7585V77.7931H48.6206V72.931Z" fill="black"/>
<path d="M53.4827 72.931H48.6206V77.7931H53.4827V72.931Z" fill="black"/>
<path d="M68.0689 72.931H63.2068V77.7931H68.0689V72.931Z" fill="black"/>
<path d="M72.9312 72.931H68.0691V77.7931H72.9312V72.931Z" fill="black"/>
<path d="M82.6553 72.931H77.7932V77.7931H82.6553V72.931Z" fill="black"/>
<path d="M92.3792 72.931H87.5171V77.7931H92.3792V72.931Z" fill="black"/>
<path d="M116.689 72.931H111.827V77.7931H116.689V72.931Z" fill="black"/>
<path d="M121.552 72.931H116.69V77.7931H121.552V72.931Z" fill="black"/>
<path d="M131.276 72.931H126.414V77.7931H131.276V72.931Z" fill="black"/>
<path d="M141 72.931H136.138V77.7931H141V72.931Z" fill="black"/>
<path d="M24.3103 77.7931H19.4482V82.6552H24.3103V77.7931Z" fill="black"/>
<path d="M34.0344 77.7931H29.1724V82.6552H34.0344V77.7931Z" fill="black"/>
<path d="M63.2068 77.7931H58.3447V82.6552H63.2068V77.7931Z" fill="black"/>
<path d="M77.793 77.7931H72.9309V82.6552H77.793V77.7931Z" fill="black"/>
<path d="M97.2415 77.7931H92.3794V82.6552H97.2415V77.7931Z" fill="black"/>
<path d="M102.104 77.7931H97.2415V82.6552H102.104V77.7931Z" fill="black"/>
<path d="M126.414 77.7931H121.552V82.6552H126.414V77.7931Z" fill="black"/>
<path d="M4.86207 82.6552H0V87.5172H4.86207V82.6552Z" fill="black"/>
<path d="M19.4484 82.6552H14.5863V87.5172H19.4484V82.6552Z" fill="black"/>
<path d="M43.7587 82.6552H38.8966V87.5172H43.7587V82.6552Z" fill="black"/>
<path d="M48.6206 82.6552H43.7585V87.5172H48.6206V82.6552Z" fill="black"/>
<path d="M87.5173 82.6552H82.6553V87.5172H87.5173V82.6552Z" fill="black"/>
<path d="M92.3792 82.6552H87.5171V87.5172H92.3792V82.6552Z" fill="black"/>
<path d="M97.2415 82.6552H92.3794V87.5172H97.2415V82.6552Z" fill="black"/>
<path d="M121.552 82.6552H116.69V87.5172H121.552V82.6552Z" fill="black"/>
<path d="M131.276 82.6552H126.414V87.5172H131.276V82.6552Z" fill="black"/>
<path d="M136.138 82.6552H131.276V87.5172H136.138V82.6552Z" fill="black"/>
<path d="M4.86207 87.5172H0V92.3793H4.86207V87.5172Z" fill="black"/>
<path d="M9.72413 87.5172H4.86206V92.3793H9.72413V87.5172Z" fill="black"/>
<path d="M14.5862 87.5172H9.72412V92.3793H14.5862V87.5172Z" fill="black"/>
<path d="M34.0344 87.5172H29.1724V92.3793H34.0344V87.5172Z" fill="black"/>
<path d="M38.8966 87.5172H34.0345V92.3793H38.8966V87.5172Z" fill="black"/>
<path d="M48.6206 87.5172H43.7585V92.3793H48.6206V87.5172Z" fill="black"/>
<path d="M53.4827 87.5172H48.6206V92.3793H53.4827V87.5172Z" fill="black"/>
<path d="M68.0689 87.5172H63.2068V92.3793H68.0689V87.5172Z" fill="black"/>
<path d="M72.9312 87.5172H68.0691V92.3793H72.9312V87.5172Z" fill="black"/>
<path d="M82.6553 87.5172H77.7932V92.3793H82.6553V87.5172Z" fill="black"/>
<path d="M92.3792 87.5172H87.5171V92.3793H92.3792V87.5172Z" fill="black"/>
<path d="M97.2415 87.5172H92.3794V92.3793H97.2415V87.5172Z" fill="black"/>
<path d="M106.966 87.5172H102.104V92.3793H106.966V87.5172Z" fill="black"/>
<path d="M111.828 87.5172H106.966V92.3793H111.828V87.5172Z" fill="black"/>
<path d="M126.414 87.5172H121.552V92.3793H126.414V87.5172Z" fill="black"/>
<path d="M141 87.5172H136.138V92.3793H141V87.5172Z" fill="black"/>
<path d="M4.86207 92.3793H0V97.2414H4.86207V92.3793Z" fill="black"/>
<path d="M9.72413 92.3793H4.86206V97.2414H9.72413V92.3793Z" fill="black"/>
<path d="M24.3103 92.3793H19.4482V97.2414H24.3103V92.3793Z" fill="black"/>
<path d="M29.1724 92.3793H24.3103V97.2414H29.1724V92.3793Z" fill="black"/>
<path d="M38.8966 92.3793H34.0345V97.2414H38.8966V92.3793Z" fill="black"/>
<path d="M43.7587 92.3793H38.8966V97.2414H43.7587V92.3793Z" fill="black"/>
<path d="M48.6206 92.3793H43.7585V97.2414H48.6206V92.3793Z" fill="black"/>
<path d="M53.4827 92.3793H48.6206V97.2414H53.4827V92.3793Z" fill="black"/>
<path d="M58.3449 92.3793H53.4828V97.2414H58.3449V92.3793Z" fill="black"/>
<path d="M68.0689 92.3793H63.2068V97.2414H68.0689V92.3793Z" fill="black"/>
<path d="M77.793 92.3793H72.9309V97.2414H77.793V92.3793Z" fill="black"/>
<path d="M82.6553 92.3793H77.7932V97.2414H82.6553V92.3793Z" fill="black"/>
<path d="M97.2415 92.3793H92.3794V97.2414H97.2415V92.3793Z" fill="black"/>
<path d="M106.966 92.3793H102.104V97.2414H106.966V92.3793Z" fill="black"/>
<path d="M111.828 92.3793H106.966V97.2414H111.828V92.3793Z" fill="black"/>
<path d="M116.689 92.3793H111.827V97.2414H116.689V92.3793Z" fill="black"/>
<path d="M121.552 92.3793H116.69V97.2414H121.552V92.3793Z" fill="black"/>
<path d="M126.414 92.3793H121.552V97.2414H126.414V92.3793Z" fill="black"/>
<path d="M131.276 92.3793H126.414V97.2414H131.276V92.3793Z" fill="black"/>
<path d="M4.86207 97.2414H0V102.103H4.86207V97.2414Z" fill="black"/>
<path d="M9.72413 97.2414H4.86206V102.103H9.72413V97.2414Z" fill="black"/>
<path d="M14.5862 97.2414H9.72412V102.103H14.5862V97.2414Z" fill="black"/>
<path d="M29.1724 97.2414H24.3103V102.103H29.1724V97.2414Z" fill="black"/>
<path d="M34.0344 97.2414H29.1724V102.103H34.0344V97.2414Z" fill="black"/>
<path d="M48.6206 97.2414H43.7585V102.103H48.6206V97.2414Z" fill="black"/>
<path d="M53.4827 97.2414H48.6206V102.103H53.4827V97.2414Z" fill="black"/>
<path d="M63.2068 97.2414H58.3447V102.103H63.2068V97.2414Z" fill="black"/>
<path d="M68.0689 97.2414H63.2068V102.103H68.0689V97.2414Z" fill="black"/>
<path d="M87.5173 97.2414H82.6553V102.103H87.5173V97.2414Z" fill="black"/>
<path d="M97.2415 97.2414H92.3794V102.103H97.2415V97.2414Z" fill="black"/>
<path d="M102.104 97.2414H97.2415V102.103H102.104V97.2414Z" fill="black"/>
<path d="M106.966 97.2414H102.104V102.103H106.966V97.2414Z" fill="black"/>
<path d="M111.828 97.2414H106.966V102.103H111.828V97.2414Z" fill="black"/>
<path d="M116.689 97.2414H111.827V102.103H116.689V97.2414Z" fill="black"/>
<path d="M121.552 97.2414H116.69V102.103H121.552V97.2414Z" fill="black"/>
<path d="M126.414 97.2414H121.552V102.103H126.414V97.2414Z" fill="black"/>
<path d="M131.276 97.2414H126.414V102.103H131.276V97.2414Z" fill="black"/>
<path d="M136.138 97.2414H131.276V102.103H136.138V97.2414Z" fill="black"/>
<path d="M43.7587 102.103H38.8966V106.966H43.7587V102.103Z" fill="black"/>
<path d="M58.3449 102.103H53.4828V106.966H58.3449V102.103Z" fill="black"/>
<path d="M68.0689 102.103H63.2068V106.966H68.0689V102.103Z" fill="black"/>
<path d="M82.6553 102.103H77.7932V106.966H82.6553V102.103Z" fill="black"/>
<path d="M87.5173 102.103H82.6553V106.966H87.5173V102.103Z" fill="black"/>
<path d="M92.3792 102.103H87.5171V106.966H92.3792V102.103Z" fill="black"/>
<path d="M102.104 102.103H97.2415V106.966H102.104V102.103Z" fill="black"/>
<path d="M121.552 102.103H116.69V106.966H121.552V102.103Z" fill="black"/>
<path d="M126.414 102.103H121.552V106.966H126.414V102.103Z" fill="black"/>
<path d="M43.7587 106.966H38.8966V111.828H43.7587V106.966Z" fill="black"/>
<path d="M68.0689 106.966H63.2068V111.828H68.0689V106.966Z" fill="black"/>
<path d="M77.793 106.966H72.9309V111.828H77.793V106.966Z" fill="black"/>
<path d="M82.6553 106.966H77.7932V111.828H82.6553V106.966Z" fill="black"/>
<path d="M97.2415 106.966H92.3794V111.828H97.2415V106.966Z" fill="black"/>
<path d="M102.104 106.966H97.2415V111.828H102.104V106.966Z" fill="black"/>
<path d="M111.828 106.966H106.966V111.828H111.828V106.966Z" fill="black"/>
<path d="M121.552 106.966H116.69V111.828H121.552V106.966Z" fill="black"/>
<path d="M126.414 106.966H121.552V111.828H126.414V106.966Z" fill="black"/>
<path d="M43.7587 111.828H38.8966V116.69H43.7587V111.828Z" fill="black"/>
<path d="M48.6206 111.828H43.7585V116.69H48.6206V111.828Z" fill="black"/>
<path d="M53.4827 111.828H48.6206V116.69H53.4827V111.828Z" fill="black"/>
<path d="M63.2068 111.828H58.3447V116.69H63.2068V111.828Z" fill="black"/>
<path d="M68.0689 111.828H63.2068V116.69H68.0689V111.828Z" fill="black"/>
<path d="M82.6553 111.828H77.7932V116.69H82.6553V111.828Z" fill="black"/>
<path d="M87.5173 111.828H82.6553V116.69H87.5173V111.828Z" fill="black"/>
<path d="M97.2415 111.828H92.3794V116.69H97.2415V111.828Z" fill="black"/>
<path d="M102.104 111.828H97.2415V116.69H102.104V111.828Z" fill="black"/>
<path d="M121.552 111.828H116.69V116.69H121.552V111.828Z" fill="black"/>
<path d="M136.138 111.828H131.276V116.69H136.138V111.828Z" fill="black"/>
<path d="M141 111.828H136.138V116.69H141V111.828Z" fill="black"/>
<path d="M43.7587 116.69H38.8966V121.552H43.7587V116.69Z" fill="black"/>
<path d="M58.3449 116.69H53.4828V121.552H58.3449V116.69Z" fill="black"/>
<path d="M63.2068 116.69H58.3447V121.552H63.2068V116.69Z" fill="black"/>
<path d="M68.0689 116.69H63.2068V121.552H68.0689V116.69Z" fill="black"/>
<path d="M77.793 116.69H72.9309V121.552H77.793V116.69Z" fill="black"/>
<path d="M82.6553 116.69H77.7932V121.552H82.6553V116.69Z" fill="black"/>
<path d="M97.2415 116.69H92.3794V121.552H97.2415V116.69Z" fill="black"/>
<path d="M102.104 116.69H97.2415V121.552H102.104V116.69Z" fill="black"/>
<path d="M106.966 116.69H102.104V121.552H106.966V116.69Z" fill="black"/>
<path d="M111.828 116.69H106.966V121.552H111.828V116.69Z" fill="black"/>
<path d="M116.689 116.69H111.827V121.552H116.689V116.69Z" fill="black"/>
<path d="M121.552 116.69H116.69V121.552H121.552V116.69Z" fill="black"/>
<path d="M126.414 116.69H121.552V121.552H126.414V116.69Z" fill="black"/>
<path d="M43.7587 121.552H38.8966V126.414H43.7587V121.552Z" fill="black"/>
<path d="M63.2068 121.552H58.3447V126.414H63.2068V121.552Z" fill="black"/>
<path d="M68.0689 121.552H63.2068V126.414H68.0689V121.552Z" fill="black"/>
<path d="M72.9312 121.552H68.0691V126.414H72.9312V121.552Z" fill="black"/>
<path d="M82.6553 121.552H77.7932V126.414H82.6553V121.552Z" fill="black"/>
<path d="M87.5173 121.552H82.6553V126.414H87.5173V121.552Z" fill="black"/>
<path d="M92.3792 121.552H87.5171V126.414H92.3792V121.552Z" fill="black"/>
<path d="M97.2415 121.552H92.3794V126.414H97.2415V121.552Z" fill="black"/>
<path d="M102.104 121.552H97.2415V126.414H102.104V121.552Z" fill="black"/>
<path d="M106.966 121.552H102.104V126.414H106.966V121.552Z" fill="black"/>
<path d="M116.689 121.552H111.827V126.414H116.689V121.552Z" fill="black"/>
<path d="M136.138 121.552H131.276V126.414H136.138V121.552Z" fill="black"/>
<path d="M53.4827 126.414H48.6206V131.276H53.4827V126.414Z" fill="black"/>
<path d="M68.0689 126.414H63.2068V131.276H68.0689V126.414Z" fill="black"/>
<path d="M82.6553 126.414H77.7932V131.276H82.6553V126.414Z" fill="black"/>
<path d="M106.966 126.414H102.104V131.276H106.966V126.414Z" fill="black"/>
<path d="M116.689 126.414H111.827V131.276H116.689V126.414Z" fill="black"/>
<path d="M121.552 126.414H116.69V131.276H121.552V126.414Z" fill="black"/>
<path d="M131.276 126.414H126.414V131.276H131.276V126.414Z" fill="black"/>
<path d="M136.138 126.414H131.276V131.276H136.138V126.414Z" fill="black"/>
<path d="M141 126.414H136.138V131.276H141V126.414Z" fill="black"/>
<path d="M58.3449 131.276H53.4828V136.138H58.3449V131.276Z" fill="black"/>
<path d="M68.0689 131.276H63.2068V136.138H68.0689V131.276Z" fill="black"/>
<path d="M77.793 131.276H72.9309V136.138H77.793V131.276Z" fill="black"/>
<path d="M106.966 131.276H102.104V136.138H106.966V131.276Z" fill="black"/>
<path d="M116.689 131.276H111.827V136.138H116.689V131.276Z" fill="black"/>
<path d="M126.414 131.276H121.552V136.138H126.414V131.276Z" fill="black"/>
<path d="M131.276 131.276H126.414V136.138H131.276V131.276Z" fill="black"/>
<path d="M141 131.276H136.138V136.138H141V131.276Z" fill="black"/>
<path d="M43.7587 136.138H38.8966V141H43.7587V136.138Z" fill="black"/>
<path d="M58.3449 136.138H53.4828V141H58.3449V136.138Z" fill="black"/>
<path d="M63.2068 136.138H58.3447V141H63.2068V136.138Z" fill="black"/>
<path d="M87.5173 136.138H82.6553V141H87.5173V136.138Z" fill="black"/>
<path d="M92.3792 136.138H87.5171V141H92.3792V136.138Z" fill="black"/>
<path d="M97.2415 136.138H92.3794V141H97.2415V136.138Z" fill="black"/>
<path d="M102.104 136.138H97.2415V141H102.104V136.138Z" fill="black"/>
<path d="M111.828 136.138H106.966V141H111.828V136.138Z" fill="black"/>
<path d="M121.552 136.138H116.69V141H121.552V136.138Z" fill="black"/>
<path d="M126.414 136.138H121.552V141H126.414V136.138Z" fill="black"/>
<path d="M28.9294 5.10518H5.10522V28.9293H28.9294V5.10518Z" fill="black"/>
<path d="M28.9293 0H5.10517H0V5.10517V28.9293V34.0345H5.10517H28.9293H34.0345V28.9293V5.10517V0H28.9293ZM28.9293 28.9293H5.10517V5.10517H28.9293V28.9293Z" fill="black"/>
<path d="M135.895 5.10518H112.071V28.9293H135.895V5.10518Z" fill="black"/>
<path d="M135.895 0H112.071H106.966V5.10517V28.9293V34.0345H112.071H135.895H141V28.9293V5.10517V0H135.895ZM135.895 28.9293H112.071V5.10517H135.895V28.9293Z" fill="black"/>
<path d="M28.9294 112.071H5.10522V135.895H28.9294V112.071Z" fill="black"/>
<path d="M28.9293 106.966H5.10517H0V112.071V135.895V141H5.10517H28.9293H34.0345V135.895V112.071V106.966H28.9293ZM28.9293 135.895H5.10517V112.071H28.9293V135.895Z" fill="black"/>
<path d="M24.3103 9.72414H9.72412V24.3103H24.3103V9.72414Z" fill="white"/>
<path d="M131.276 9.72414H116.69V24.3103H131.276V9.72414Z" fill="white"/>
<path d="M24.3103 116.69H9.72412V131.276H24.3103V116.69Z" fill="white"/>
</svg>
