<svg width="31" height="30" viewBox="0 0 31 30" fill="none" xmlns="http://www.w3.org/2000/svg">
<path d="M15.2828 29.9994C11.8337 29.9878 8.48915 28.8137 5.78962 26.6667C3.08984 24.5201 1.19309 21.5258 0.405216 18.168C-0.382365 14.81 -0.0151089 11.2847 1.44782 8.16109C2.91103 5.03774 5.3844 2.49883 8.46849 0.954523C8.93962 0.658332 9.51397 0.575362 10.0498 0.725874C10.5852 0.876699 11.0323 1.24685 11.2796 1.74534C11.5272 2.24349 11.5523 2.82334 11.3487 3.34143C11.1451 3.8592 10.7319 4.26663 10.2113 4.46315C7.09409 6.00613 4.85288 8.88925 4.12675 12.291C3.40059 15.6925 4.26858 19.2397 6.48404 21.9217C8.69948 24.6032 12.0189 26.1253 15.4965 26.0542C18.9742 25.9828 22.2284 24.3263 24.3319 21.556C26.4354 18.7861 27.158 15.2065 26.2929 11.8372C25.4282 8.4679 23.0709 5.67904 19.8929 4.26473C19.2507 3.97723 18.8105 3.36909 18.7381 2.66898C18.6658 1.96886 18.9726 1.28356 19.5424 0.870935C20.1126 0.458333 20.8597 0.381151 21.5019 0.668656C24.7034 2.101 27.317 4.5873 28.9072 7.71312C30.4971 10.839 30.968 14.4158 30.2405 17.8469C29.5128 21.2776 27.6315 24.3556 24.9095 26.567C22.1875 28.7784 18.7895 29.99 15.2829 30L15.2828 29.9994Z" fill="white"/>
</svg>
