<svg width="129" height="136" viewBox="0 0 129 136" fill="none" xmlns="http://www.w3.org/2000/svg">
<g filter="url(#filter0_f_8_1834)">
<rect x="17" y="13" width="95" height="123" rx="5" fill="#3F3727" fill-opacity="0.5"/>
</g>

<path d="M63.9794 71.8422C63.7296 71.8422 63.4381 71.759 63.1882 71.634L44.7395 61.0145C44.2814 60.723 43.9482 60.2233 43.9482 59.6819V38.318C43.9482 37.7766 44.2397 37.2769 44.7395 36.9854L63.1882 26.3659C63.6463 26.116 64.271 26.0744 64.7291 26.3659L83.2611 36.9854C83.7608 37.2769 84.0523 37.7766 84.0523 38.318V59.6819C84.0523 60.2233 83.7608 60.7647 83.2611 61.0145L64.7291 71.634C64.5208 71.759 64.2293 71.8422 63.9794 71.8422ZM47.0716 58.7657L63.9794 68.5106L80.9706 58.7657V39.1926L63.9794 29.4893L47.0716 39.2342V58.7657Z" fill="black"/>
<path d="M63.9793 50.6033C63.7294 50.6033 63.4379 50.52 63.1881 50.3951L44.7393 39.6923C43.9897 39.2759 43.7398 38.318 44.1979 37.5684C44.6144 36.8188 45.5722 36.5689 46.3218 37.027L64.7706 47.7298C65.5202 48.1463 65.77 49.1041 65.312 49.8537C65.0204 50.3118 64.5207 50.6033 63.9793 50.6033Z" fill="black"/>
<path d="M63.9794 50.6033C63.438 50.6033 62.9383 50.3118 62.6468 49.8121C62.2303 49.0625 62.4802 48.1463 63.2298 47.6882L81.7618 36.9854C82.5115 36.569 83.4276 36.8188 83.8857 37.5684C84.3022 38.3181 84.0523 39.2342 83.3027 39.6923L64.7707 50.3951C64.5208 50.52 64.2293 50.6033 63.9794 50.6033Z" fill="black"/>
<path d="M63.9794 71.8423C63.1465 71.8423 62.4385 71.1343 62.4385 70.3014V49.0625C62.4385 48.1879 63.1465 47.5216 63.9794 47.5216C64.8123 47.5216 65.5203 48.2296 65.5203 49.0625V70.3014C65.5203 71.1343 64.8123 71.8423 63.9794 71.8423Z" fill="black"/>
<path d="M31.0798 70.8428H25.5411C24.7082 70.8428 24.0002 70.1348 24.0002 69.3019V28.6981C24.0002 27.8236 24.7082 27.1572 25.5411 27.1572H31.0798C31.9127 27.1572 32.6207 27.8652 32.6207 28.6981C32.6207 29.5726 31.9127 30.239 31.0798 30.239H27.0819V67.7611H31.0798C31.9127 67.7611 32.6207 68.4691 32.6207 69.3019C32.6207 70.1348 31.9544 70.8428 31.0798 70.8428Z" fill="black"/>
<path d="M102.459 70.8428H96.9206C96.0877 70.8428 95.3797 70.1348 95.3797 69.3019C95.3797 68.4274 96.0877 67.7611 96.9206 67.7611H100.919V30.239H96.9206C96.0877 30.239 95.3797 29.531 95.3797 28.6981C95.3797 27.8236 96.0877 27.1572 96.9206 27.1572H102.459C103.292 27.1572 104 27.8652 104 28.6981V69.3019C104.042 70.1348 103.334 70.8428 102.459 70.8428Z" fill="black"/>
<path d="M63.9794 22.1598C63.1465 22.1598 62.4385 21.4518 62.4385 20.6189V10.5408C62.4385 9.6663 63.1465 9 63.9794 9C64.8123 9 65.5203 9.70794 65.5203 10.5408V20.6189C65.5203 21.4935 64.8123 22.1598 63.9794 22.1598Z" fill="#E4E4E4"/>
<path d="M54.8175 25.0749C53.9846 25.0749 53.2767 24.3669 53.2767 23.534V17.0791C53.2767 16.2045 53.9846 15.5382 54.8175 15.5382C55.6504 15.5382 56.3584 16.2462 56.3584 17.0791V23.534C56.3584 24.3669 55.6504 25.0749 54.8175 25.0749Z" fill="#E4E4E4"/>
<path d="M45.5307 29.8641C44.6978 29.8641 43.9898 29.1562 43.9898 28.3233V25.7829C43.9898 24.9084 44.6978 24.2421 45.5307 24.2421C46.3636 24.2421 47.0716 24.95 47.0716 25.7829V28.3233C47.0716 29.1978 46.4053 29.8641 45.5307 29.8641Z" fill="#E4E4E4"/>
<path d="M82.5114 29.8641C81.6785 29.8641 80.9706 29.1562 80.9706 28.3233V25.7829C80.9706 24.9084 81.6785 24.2421 82.5114 24.2421C83.3443 24.2421 84.0523 24.95 84.0523 25.7829V28.3233C84.0523 29.1978 83.3443 29.8641 82.5114 29.8641Z" fill="#E4E4E4"/>
<path d="M73.2246 25.0749C72.3917 25.0749 71.6837 24.3669 71.6837 23.534V17.0791C71.6837 16.2045 72.3917 15.5382 73.2246 15.5382C74.0575 15.5382 74.7654 16.2462 74.7654 17.0791V23.534C74.7654 24.3669 74.0991 25.0749 73.2246 25.0749Z" fill="#E4E4E4"/>
<path d="M63.9794 89C63.1465 89 62.4385 88.292 62.4385 87.4591V77.4643C62.4385 76.5898 63.1465 75.9235 63.9794 75.9235C64.8123 75.9235 65.5203 76.6314 65.5203 77.4643V87.4591C65.5203 88.3337 64.8123 89 63.9794 89Z" fill="#E4E4E4"/>
<path d="M54.8175 82.4617C53.9846 82.4617 53.2767 81.7538 53.2767 80.9209V74.4659C53.2767 73.5913 53.9846 72.925 54.8175 72.925C55.6504 72.925 56.3584 73.633 56.3584 74.4659V80.9209C56.3584 81.7954 55.6504 82.4617 54.8175 82.4617Z" fill="#E4E4E4"/>
<path d="M45.5307 73.7579C44.6978 73.7579 43.9898 73.05 43.9898 72.2171V69.6767C43.9898 68.8022 44.6978 68.1359 45.5307 68.1359C46.3636 68.1359 47.0716 68.8438 47.0716 69.6767V72.2171C47.0716 73.05 46.4053 73.7579 45.5307 73.7579Z" fill="#E4E4E4"/>
<path d="M82.5114 73.7579C81.6785 73.7579 80.9706 73.05 80.9706 72.2171V69.6767C80.9706 68.8022 81.6785 68.1359 82.5114 68.1359C83.3443 68.1359 84.0523 68.8438 84.0523 69.6767V72.2171C84.0523 73.05 83.3443 73.7579 82.5114 73.7579Z" fill="#E4E4E4"/>
<path d="M73.2246 82.4617C72.3917 82.4617 71.6837 81.7538 71.6837 80.9209V74.4659C71.6837 73.5913 72.3917 72.925 73.2246 72.925C74.0575 72.925 74.7654 73.633 74.7654 74.4659V80.9209C74.7654 81.7954 74.0991 82.4617 73.2246 82.4617Z" fill="#E4E4E4"/>
<path d="M21.1803 96.9091H18.5787L23.1874 110H26.115L30.73 96.9091H28.1221L24.7215 107.213H24.5873L21.1803 96.9091ZM32.352 110H34.6659V100.182H32.352V110ZM33.5154 98.7884C34.2504 98.7884 34.8513 98.2259 34.8513 97.5355C34.8513 96.8388 34.2504 96.2763 33.5154 96.2763C32.7739 96.2763 32.173 96.8388 32.173 97.5355C32.173 98.2259 32.7739 98.7884 33.5154 98.7884ZM41.392 110.192C43.6803 110.192 45.2528 109.073 45.6618 107.366L43.5013 107.124C43.1881 107.955 42.4211 108.389 41.4239 108.389C39.9282 108.389 38.9374 107.405 38.9182 105.724H45.7577V105.014C45.7577 101.569 43.6867 100.054 41.2705 100.054C38.458 100.054 36.6235 102.119 36.6235 105.148C36.6235 108.229 38.4324 110.192 41.392 110.192ZM38.9246 104.164C38.9949 102.911 39.9218 101.857 41.3025 101.857C42.632 101.857 43.5269 102.828 43.5397 104.164H38.9246ZM49.6888 110H52.105L53.9459 103.365H54.0802L55.9211 110H58.3309L61.1114 100.182H58.7464L57.0461 107.047H56.9502L55.186 100.182H52.8529L51.0887 107.085H50.9992L49.2733 100.182H46.9147L49.6888 110ZM67.1919 110H69.5058V100.182H67.1919V110ZM68.3552 98.7884C69.0903 98.7884 69.6911 98.2259 69.6911 97.5355C69.6911 96.8388 69.0903 96.2763 68.3552 96.2763C67.6137 96.2763 67.0129 96.8388 67.0129 97.5355C67.0129 98.2259 67.6137 98.7884 68.3552 98.7884ZM74.1991 104.247C74.1991 102.828 75.0557 102.01 76.2765 102.01C77.4719 102.01 78.1878 102.796 78.1878 104.107V110H80.5017V103.749C80.5081 101.396 79.1657 100.054 77.1395 100.054C75.6693 100.054 74.6594 100.757 74.2119 101.85H74.0969V100.182H71.8852V110H74.1991V104.247ZM89.1022 110L90.1824 106.772H95.1043L96.191 110H98.7222L94.1072 96.9091H91.1796L86.5709 110H89.1022ZM90.8216 104.867L92.5922 99.5938H92.6945L94.4651 104.867H90.8216ZM100.446 110H102.818V105.206H105.234L107.804 110H110.45L107.618 104.81C109.159 104.19 109.971 102.873 109.971 101.096C109.971 98.5966 108.36 96.9091 105.356 96.9091H100.446V110ZM102.818 103.237V98.8906H104.991C106.762 98.8906 107.554 99.7024 107.554 101.096C107.554 102.489 106.762 103.237 105.004 103.237H102.818Z" fill="black"/>
<defs>
<filter id="filter0_f_8_1834" x="-44" y="-48" width="217" height="245" filterUnits="userSpaceOnUse" color-interpolation-filters="sRGB">
<feFlood flood-opacity="0" result="BackgroundImageFix"/>
</filter>
</defs>
</svg>
