<svg width="177" height="50" viewBox="0 0 177 50" fill="none" xmlns="http://www.w3.org/2000/svg">
<g opacity="0.7">
<path d="M14.8294 4.17793L11.6117 1L8.39404 4.17793" stroke="#969696" stroke-width="2" stroke-miterlimit="10" stroke-linecap="round" stroke-linejoin="round"/>
<path d="M11.6117 1V10.5338" stroke="#969696" stroke-width="2" stroke-miterlimit="10" stroke-linecap="round" stroke-linejoin="round"/>
<path d="M14.8294 15.8303L11.6117 19.0083L8.39404 15.8303" stroke="#969696" stroke-width="2" stroke-miterlimit="10" stroke-linecap="round" stroke-linejoin="round"/>
<path d="M11.6117 19.0083V10.5338" stroke="#969696" stroke-width="2" stroke-miterlimit="10" stroke-linecap="round" stroke-linejoin="round"/>
<path d="M18.0471 13.7118L21.2648 10.5339L18.0471 7.35596" stroke="#969696" stroke-width="2" stroke-miterlimit="10" stroke-linecap="round" stroke-linejoin="round"/>
<path d="M21.2648 10.5338H11.6117" stroke="#969696" stroke-width="2" stroke-miterlimit="10" stroke-linecap="round" stroke-linejoin="round"/>
<path d="M5.17634 13.7118L1.95865 10.5339L5.17634 7.35596" stroke="#969696" stroke-width="2" stroke-miterlimit="10" stroke-linecap="round" stroke-linejoin="round"/>
<path d="M1.95865 10.5338H11.6117" stroke="#969696" stroke-width="2" stroke-miterlimit="10" stroke-linecap="round" stroke-linejoin="round"/>
<path d="M14.6819 24.1194L17.9667 26.8471" stroke="#969696" stroke-width="2" stroke-miterlimit="10" stroke-linecap="round"/>
<path d="M19.0795 22.2391L21.5464 24.2783" stroke="#969696" stroke-width="2" stroke-miterlimit="10" stroke-linecap="round"/>
<path d="M11.1023 26.6882L12.4832 25.0595C12.9122 24.5431 13.9311 24.0135 14.6819 24.1194L16.0629 22.4907C16.7064 21.736 18.1544 21.4579 19.0795 22.2259L20.4604 20.5972C21.1039 19.8424 22.5519 19.5644 23.477 20.3324L33.7468 28.8466C35.4093 30.2237 37.4203 34.6595 38.5331 35.5732C39.6459 36.4869 41 37.6124 41 37.6124" stroke="#969696" stroke-width="2" stroke-miterlimit="10" stroke-linecap="round" stroke-linejoin="round"/>
<path d="M31.3469 48.9999C31.3469 48.9999 28.8264 46.9078 28.0622 46.2722C27.298 45.6366 23.3831 45.4248 21.3318 45.5439C18.4627 45.7161 15.6875 43.9947 13.6362 43.8093C10.9146 43.5577 8.03205 43.571 6.78519 43.4253C5.53833 43.2797 6.06122 39.9429 8.16612 39.2146C10.271 38.4731 12.3357 38.6717 12.8854 38.6187C13.4485 38.5658 15.111 38.3142 15.8752 37.5594C15.3925 36.4736 14.2127 34.8317 13.2742 34.0239C8.67557 30.0515 1.77096 24.4901 1.77096 24.4901C0.859285 23.7354 0.738621 22.398 1.50282 21.5108C2.26703 20.6104 3.62114 20.4912 4.51941 21.246L15.2048 30.0912" stroke="#969696" stroke-width="2" stroke-miterlimit="10" stroke-linecap="round" stroke-linejoin="round"/>
<path d="M52.1506 38H61.1761V36.5938H54.0426L61.0994 26.0597V24.9091H52.0739V26.3153H59.2074L52.1506 36.8494V38ZM67.6193 38.2045C70.2784 38.2045 72.0682 36.1847 72.0682 33.142C72.0682 30.0739 70.2784 28.054 67.6193 28.054C64.9602 28.054 63.1705 30.0739 63.1705 33.142C63.1705 36.1847 64.9602 38.2045 67.6193 38.2045ZM67.6193 36.8494C65.5994 36.8494 64.679 35.1108 64.679 33.142C64.679 31.1733 65.5994 29.4091 67.6193 29.4091C69.6392 29.4091 70.5597 31.1733 70.5597 33.142C70.5597 35.1108 69.6392 36.8494 67.6193 36.8494ZM78.3596 38.2045C81.0186 38.2045 82.8084 36.1847 82.8084 33.142C82.8084 30.0739 81.0186 28.054 78.3596 28.054C75.7005 28.054 73.9107 30.0739 73.9107 33.142C73.9107 36.1847 75.7005 38.2045 78.3596 38.2045ZM78.3596 36.8494C76.3397 36.8494 75.4192 35.1108 75.4192 33.142C75.4192 31.1733 76.3397 29.4091 78.3596 29.4091C80.3794 29.4091 81.2999 31.1733 81.2999 33.142C81.2999 35.1108 80.3794 36.8494 78.3596 36.8494ZM85.1112 38H86.6197V31.8636C86.6197 30.4254 87.668 29.4091 88.8441 29.4091C89.9883 29.4091 90.7873 30.157 90.7873 31.2756V38H92.3214V31.608C92.3214 30.3423 93.114 29.4091 94.4947 29.4091C95.5685 29.4091 96.489 29.978 96.489 31.429V38H97.9975V31.429C97.9975 29.1214 96.7575 28.054 95.006 28.054C93.5998 28.054 92.5707 28.6996 92.0657 29.7159H91.9634C91.4776 28.6676 90.6211 28.054 89.3299 28.054C88.0515 28.054 87.1055 28.6676 86.6964 29.7159H86.5685V28.1818H85.1112V38ZM109.526 38.179C110.727 38.179 112.07 37.7571 112.92 36.8878L113.847 38H115.662L113.853 35.7947C114.345 35.1619 114.895 34.1009 114.895 32.2727H113.438C113.438 33.1676 113.233 33.9602 112.894 34.6186L110.05 31.1477L111.009 30.4318C112.082 29.6392 112.747 28.7699 112.747 27.517C112.747 26.0597 111.545 24.7812 109.577 24.7812C107.659 24.7812 106.406 25.983 106.406 27.7472C106.406 28.9105 107.039 29.8054 107.94 30.892C106.413 31.9531 105.358 32.9375 105.358 34.5227C105.358 36.6449 106.943 38.179 109.526 38.179ZM112.018 35.7947C111.296 36.4723 110.382 36.8494 109.474 36.8494C107.915 36.8494 106.892 35.75 106.892 34.5227C106.892 34.1648 107.224 33.2443 108.401 32.375L108.886 32.017L112.018 35.7947ZM109.123 30.0227C108.484 29.2429 107.94 28.5014 107.94 27.7727C107.94 26.9545 108.631 26.0852 109.628 26.0852C110.574 26.0852 111.213 26.8523 111.213 27.517C111.213 28.4119 110.727 28.8977 109.986 29.3835L109.123 30.0227ZM122.599 38H124.184V32.8864H127.048C127.163 32.8864 127.271 32.8864 127.38 32.88L130.142 38H131.982L129.023 32.5923C130.691 32.0234 131.471 30.6619 131.471 28.9233C131.471 26.6094 130.09 24.9091 127.022 24.9091H122.599V38ZM124.184 31.4545V26.3153H126.971C129.093 26.3153 129.911 27.3509 129.911 28.9233C129.911 30.4957 129.093 31.4545 126.997 31.4545H124.184ZM137.791 38.2045C140.45 38.2045 142.24 36.1847 142.24 33.142C142.24 30.0739 140.45 28.054 137.791 28.054C135.132 28.054 133.342 30.0739 133.342 33.142C133.342 36.1847 135.132 38.2045 137.791 38.2045ZM137.791 36.8494C135.771 36.8494 134.851 35.1108 134.851 33.142C134.851 31.1733 135.771 29.4091 137.791 29.4091C139.811 29.4091 140.732 31.1733 140.732 33.142C140.732 35.1108 139.811 36.8494 137.791 36.8494ZM148.813 28.1818H146.716V25.8295H145.208V28.1818H143.725V29.4602H145.208V35.5966C145.208 37.3097 146.588 38.1278 147.867 38.1278C148.429 38.1278 148.787 38.0256 148.992 37.9489L148.685 36.5938C148.557 36.6193 148.352 36.6705 148.02 36.6705C147.355 36.6705 146.716 36.4659 146.716 35.1875V29.4602H148.813V28.1818ZM153.971 38.2301C155.684 38.2301 156.579 37.3097 156.886 36.6705H156.963V38H158.471V31.5312C158.471 28.4119 156.093 28.054 154.84 28.054C153.357 28.054 151.67 28.5653 150.903 30.3551L152.335 30.8665C152.667 30.1506 153.453 29.3835 154.892 29.3835C156.279 29.3835 156.963 30.1186 156.963 31.3778V31.429C156.963 32.1577 156.221 32.0938 154.431 32.3239C152.61 32.5604 150.622 32.9631 150.622 35.2131C150.622 37.1307 152.105 38.2301 153.971 38.2301ZM154.201 36.875C152.999 36.875 152.13 36.3381 152.13 35.2898C152.13 34.1392 153.178 33.7812 154.355 33.6278C154.994 33.5511 156.707 33.3722 156.963 33.0653V34.446C156.963 35.6733 155.991 36.875 154.201 36.875ZM165.494 28.1818H163.398V25.8295H161.889V28.1818H160.406V29.4602H161.889V35.5966C161.889 37.3097 163.27 38.1278 164.548 38.1278C165.111 38.1278 165.469 38.0256 165.673 37.9489L165.366 36.5938C165.239 36.6193 165.034 36.6705 164.702 36.6705C164.037 36.6705 163.398 36.4659 163.398 35.1875V29.4602H165.494V28.1818ZM171.775 38.2045C173.769 38.2045 175.226 37.2074 175.686 35.7244L174.229 35.3153C173.846 36.3381 172.957 36.8494 171.775 36.8494C170.004 36.8494 168.783 35.7053 168.713 33.6023H175.84V32.9631C175.84 29.3068 173.667 28.054 171.621 28.054C168.962 28.054 167.198 30.1506 167.198 33.1676C167.198 36.1847 168.936 38.2045 171.775 38.2045ZM168.713 32.2983C168.815 30.7706 169.895 29.4091 171.621 29.4091C173.257 29.4091 174.306 30.6364 174.306 32.2983H168.713Z" fill="#969696"/>
</g>
</svg>
